<svg width="352" height="503" viewBox="0 0 352 503" fill="none" xmlns="http://www.w3.org/2000/svg">
<rect width="352" height="503" fill="black"/>
<rect x="136" width="148" height="439" fill="#0C3BF5"/>
<path d="M352 222.314C352 212.746 349.437 205.135 344.31 199.481C339.184 193.827 332.215 191 323.404 191C314.593 191 307.624 193.827 302.498 199.481C297.371 205.135 294.808 212.746 294.808 222.314V390.302C294.808 399.871 297.371 407.482 302.498 413.136C307.624 418.79 314.593 421.617 323.404 421.617C332.215 421.617 339.184 418.79 344.31 413.136C349.437 407.482 352 399.871 352 390.302V222.314ZM328.931 397.65C328.931 401.564 328.45 404.065 327.489 405.152C326.688 406.24 325.326 406.783 323.404 406.783C321.482 406.783 320.04 406.24 319.078 405.152C318.277 404.065 317.877 401.564 317.877 397.65V214.967C317.877 211.052 318.277 208.552 319.078 207.464C320.04 206.377 321.482 205.833 323.404 205.833C325.326 205.833 326.688 206.377 327.489 207.464C328.45 208.552 328.931 211.052 328.931 214.967V397.65Z" fill="#A892F3"/>
<path d="M236.2 421V304.385H236.8L252.2 421H274L257.4 295.986L273.6 191H253L236.8 294.694H236.2V191H215V421H236.2Z" fill="black"/>
<path d="M183.8 421V304.385H183.2L167.8 421H146L162.6 295.986L146.4 191H167L183.2 294.694H183.8V191H205V421H183.8Z" fill="black"/>
<path d="M102.123 326.617V397.464C102.123 401.379 101.642 403.879 100.681 404.967C99.8802 406.054 98.5185 406.598 96.596 406.598C94.6736 406.598 93.2318 406.054 92.2706 404.967C91.4696 403.879 91.0691 401.379 91.0691 397.464V314.471H125.192V222.314C125.192 212.746 122.629 205.135 117.502 199.481C112.376 193.827 105.407 191 96.596 191C87.7849 191 80.8162 193.827 75.6897 199.481C70.5632 205.135 68 212.746 68 222.314V390.117C68 399.685 70.5632 407.296 75.6897 412.95C80.8162 418.604 87.7849 421.431 96.596 421.431C105.407 421.431 112.376 418.604 117.502 412.95C122.629 407.296 125.192 399.685 125.192 390.117V326.617H102.123ZM102.123 292.617H91.0691V214.967C91.0691 211.052 91.4696 208.552 92.2706 207.464C93.2318 206.377 94.6736 205.833 96.596 205.833C98.5185 205.833 99.8802 206.377 100.681 207.464C101.642 208.552 102.123 211.052 102.123 214.967V292.617Z" fill="#A892F3"/>
<path d="M33.1141 474.304V469.588H36.4621C37.4341 469.588 38.1421 469.792 38.5861 470.2C39.0421 470.596 39.2701 471.178 39.2701 471.946C39.2701 472.714 39.0421 473.302 38.5861 473.71C38.1421 474.118 37.4341 474.316 36.4621 474.304H33.1141ZM31.4041 468.148V481H33.1141V475.744H37.0381C38.3341 475.756 39.3121 475.426 39.9721 474.754C40.6441 474.082 40.9801 473.146 40.9801 471.946C40.9801 470.746 40.6441 469.816 39.9721 469.156C39.3121 468.484 38.3341 468.148 37.0381 468.148H31.4041Z" fill="#A892F3"/>
<path d="M45.2359 468.148V481H46.9459V475.51H51.1219C51.5419 475.51 51.8779 475.576 52.1299 475.708C52.3819 475.828 52.5859 475.996 52.7419 476.212C52.8979 476.416 53.0119 476.662 53.0839 476.95C53.1559 477.226 53.2159 477.52 53.2639 477.832C53.3239 478.144 53.3599 478.462 53.3719 478.786C53.3839 479.11 53.3959 479.416 53.4079 479.704C53.4199 479.98 53.4439 480.232 53.4799 480.46C53.5279 480.688 53.6119 480.868 53.7319 481H55.6399C55.4599 480.784 55.3219 480.538 55.2259 480.262C55.1419 479.974 55.0759 479.674 55.0279 479.362C54.9799 479.05 54.9499 478.732 54.9379 478.408C54.9259 478.084 54.9079 477.766 54.8839 477.454C54.8479 477.142 54.7939 476.842 54.7219 476.554C54.6619 476.266 54.5599 476.008 54.4159 475.78C54.2839 475.54 54.0979 475.336 53.8579 475.168C53.6299 475 53.3299 474.88 52.9579 474.808V474.772C53.7379 474.556 54.3019 474.154 54.6499 473.566C55.0099 472.978 55.1899 472.294 55.1899 471.514C55.1899 470.47 54.8419 469.648 54.1459 469.048C53.4619 468.448 52.5079 468.148 51.2839 468.148H45.2359ZM50.5099 474.07H46.9459V469.588H51.1939C51.9979 469.588 52.5799 469.792 52.9399 470.2C53.2999 470.608 53.4799 471.136 53.4799 471.784C53.4799 472.252 53.3959 472.636 53.2279 472.936C53.0719 473.224 52.8559 473.458 52.5799 473.638C52.3159 473.806 52.0039 473.92 51.6439 473.98C51.2839 474.04 50.9059 474.07 50.5099 474.07Z" fill="#A892F3"/>
<path d="M60.7082 474.574C60.7082 473.926 60.7922 473.29 60.9602 472.666C61.1282 472.03 61.3922 471.46 61.7522 470.956C62.1122 470.452 62.5742 470.05 63.1382 469.75C63.7022 469.438 64.3742 469.282 65.1542 469.282C65.9342 469.282 66.6062 469.438 67.1702 469.75C67.7342 470.05 68.1962 470.452 68.5562 470.956C68.9162 471.46 69.1802 472.03 69.3482 472.666C69.5162 473.29 69.6002 473.926 69.6002 474.574C69.6002 475.222 69.5162 475.864 69.3482 476.5C69.1802 477.124 68.9162 477.688 68.5562 478.192C68.1962 478.696 67.7342 479.104 67.1702 479.416C66.6062 479.716 65.9342 479.866 65.1542 479.866C64.3742 479.866 63.7022 479.716 63.1382 479.416C62.5742 479.104 62.1122 478.696 61.7522 478.192C61.3922 477.688 61.1282 477.124 60.9602 476.5C60.7922 475.864 60.7082 475.222 60.7082 474.574ZM58.9982 474.574C58.9982 475.45 59.1242 476.296 59.3762 477.112C59.6402 477.916 60.0302 478.63 60.5462 479.254C61.0622 479.878 61.7042 480.376 62.4722 480.748C63.2402 481.108 64.1342 481.288 65.1542 481.288C66.1742 481.288 67.0682 481.108 67.8362 480.748C68.6042 480.376 69.2462 479.878 69.7622 479.254C70.2782 478.63 70.6622 477.916 70.9142 477.112C71.1782 476.296 71.3102 475.45 71.3102 474.574C71.3102 473.698 71.1782 472.858 70.9142 472.054C70.6622 471.238 70.2782 470.518 69.7622 469.894C69.2462 469.27 68.6042 468.772 67.8362 468.4C67.0682 468.028 66.1742 467.842 65.1542 467.842C64.1342 467.842 63.2402 468.028 62.4722 468.4C61.7042 468.772 61.0622 469.27 60.5462 469.894C60.0302 470.518 59.6402 471.238 59.3762 472.054C59.1242 472.858 58.9982 473.698 58.9982 474.574Z" fill="#A892F3"/>
<path d="M77.264 479.56V469.588H80.144C80.936 469.588 81.602 469.702 82.142 469.93C82.682 470.146 83.12 470.47 83.456 470.902C83.804 471.322 84.05 471.838 84.194 472.45C84.35 473.05 84.428 473.734 84.428 474.502C84.428 475.294 84.344 475.972 84.176 476.536C84.02 477.088 83.816 477.55 83.564 477.922C83.312 478.294 83.024 478.588 82.7 478.804C82.388 479.02 82.07 479.188 81.746 479.308C81.422 479.416 81.116 479.488 80.828 479.524C80.54 479.548 80.3 479.56 80.108 479.56H77.264ZM75.554 468.148V481H79.964C81.032 481 81.956 480.85 82.736 480.55C83.516 480.25 84.158 479.818 84.662 479.254C85.166 478.678 85.538 477.976 85.778 477.148C86.018 476.308 86.138 475.348 86.138 474.268C86.138 472.204 85.604 470.668 84.536 469.66C83.468 468.652 81.944 468.148 79.964 468.148H75.554Z" fill="#A892F3"/>
<path d="M100.648 476.356V468.148H98.9378V476.356C98.9378 477.508 98.6498 478.384 98.0738 478.984C97.5098 479.572 96.6818 479.866 95.5898 479.866C94.4378 479.866 93.5558 479.572 92.9438 478.984C92.3318 478.384 92.0258 477.508 92.0258 476.356V468.148H90.3158V476.356C90.3158 478.072 90.7778 479.326 91.7018 480.118C92.6378 480.898 93.9338 481.288 95.5898 481.288C97.2098 481.288 98.4578 480.88 99.3338 480.064C100.21 479.236 100.648 478 100.648 476.356Z" fill="#A892F3"/>
<path d="M114.574 472.018H116.284C116.188 471.334 115.984 470.734 115.672 470.218C115.36 469.69 114.97 469.252 114.502 468.904C114.034 468.556 113.5 468.292 112.9 468.112C112.3 467.932 111.664 467.842 110.992 467.842C110.008 467.842 109.132 468.022 108.364 468.382C107.608 468.73 106.972 469.21 106.456 469.822C105.952 470.434 105.568 471.154 105.304 471.982C105.04 472.798 104.908 473.674 104.908 474.61C104.908 475.546 105.028 476.422 105.268 477.238C105.52 478.054 105.892 478.762 106.384 479.362C106.876 479.962 107.494 480.436 108.238 480.784C108.982 481.12 109.852 481.288 110.848 481.288C112.492 481.288 113.788 480.838 114.736 479.938C115.684 479.038 116.242 477.778 116.41 476.158H114.7C114.664 476.686 114.556 477.178 114.376 477.634C114.196 478.09 113.944 478.486 113.62 478.822C113.308 479.146 112.93 479.404 112.486 479.596C112.054 479.776 111.556 479.866 110.992 479.866C110.224 479.866 109.564 479.722 109.012 479.434C108.46 479.146 108.004 478.762 107.644 478.282C107.296 477.79 107.038 477.22 106.87 476.572C106.702 475.912 106.618 475.216 106.618 474.484C106.618 473.812 106.702 473.164 106.87 472.54C107.038 471.916 107.296 471.364 107.644 470.884C108.004 470.392 108.454 470.002 108.994 469.714C109.546 469.426 110.206 469.282 110.974 469.282C111.874 469.282 112.648 469.51 113.296 469.966C113.956 470.422 114.382 471.106 114.574 472.018Z" fill="#A892F3"/>
<path d="M123.604 469.588V481H125.314V469.588H129.598V468.148H119.32V469.588H123.604Z" fill="#A892F3"/>
<path d="M133.256 468.148V481H134.966V468.148H133.256Z" fill="#A892F3"/>
<path d="M140.992 474.574C140.992 473.926 141.076 473.29 141.244 472.666C141.412 472.03 141.676 471.46 142.036 470.956C142.396 470.452 142.858 470.05 143.422 469.75C143.986 469.438 144.658 469.282 145.438 469.282C146.218 469.282 146.89 469.438 147.454 469.75C148.018 470.05 148.48 470.452 148.84 470.956C149.2 471.46 149.464 472.03 149.632 472.666C149.8 473.29 149.884 473.926 149.884 474.574C149.884 475.222 149.8 475.864 149.632 476.5C149.464 477.124 149.2 477.688 148.84 478.192C148.48 478.696 148.018 479.104 147.454 479.416C146.89 479.716 146.218 479.866 145.438 479.866C144.658 479.866 143.986 479.716 143.422 479.416C142.858 479.104 142.396 478.696 142.036 478.192C141.676 477.688 141.412 477.124 141.244 476.5C141.076 475.864 140.992 475.222 140.992 474.574ZM139.282 474.574C139.282 475.45 139.408 476.296 139.66 477.112C139.924 477.916 140.314 478.63 140.83 479.254C141.346 479.878 141.988 480.376 142.756 480.748C143.524 481.108 144.418 481.288 145.438 481.288C146.458 481.288 147.352 481.108 148.12 480.748C148.888 480.376 149.53 479.878 150.046 479.254C150.562 478.63 150.946 477.916 151.198 477.112C151.462 476.296 151.594 475.45 151.594 474.574C151.594 473.698 151.462 472.858 151.198 472.054C150.946 471.238 150.562 470.518 150.046 469.894C149.53 469.27 148.888 468.772 148.12 468.4C147.352 468.028 146.458 467.842 145.438 467.842C144.418 467.842 143.524 468.028 142.756 468.4C141.988 468.772 141.346 469.27 140.83 469.894C140.314 470.518 139.924 471.238 139.66 472.054C139.408 472.858 139.282 473.698 139.282 474.574Z" fill="#A892F3"/>
<path d="M155.82 468.148V481H157.44V470.686H157.476L164.19 481H166.062V468.148H164.442V478.57H164.406L157.638 468.148H155.82Z" fill="#A892F3"/>
<path d="M185.592 471.91H187.212C187.188 471.202 187.05 470.596 186.798 470.092C186.558 469.576 186.222 469.15 185.79 468.814C185.37 468.478 184.878 468.232 184.314 468.076C183.75 467.92 183.138 467.842 182.478 467.842C181.89 467.842 181.314 467.92 180.75 468.076C180.198 468.22 179.7 468.448 179.256 468.76C178.824 469.06 178.476 469.45 178.212 469.93C177.948 470.398 177.816 470.956 177.816 471.604C177.816 472.192 177.93 472.684 178.158 473.08C178.398 473.464 178.71 473.782 179.094 474.034C179.49 474.274 179.934 474.472 180.426 474.628C180.918 474.772 181.416 474.904 181.92 475.024C182.436 475.132 182.94 475.24 183.432 475.348C183.924 475.456 184.362 475.6 184.746 475.78C185.142 475.948 185.454 476.17 185.682 476.446C185.922 476.722 186.042 477.082 186.042 477.526C186.042 477.994 185.946 478.378 185.754 478.678C185.562 478.978 185.31 479.218 184.998 479.398C184.686 479.566 184.332 479.686 183.936 479.758C183.552 479.83 183.168 479.866 182.784 479.866C182.304 479.866 181.836 479.806 181.38 479.686C180.924 479.566 180.522 479.38 180.174 479.128C179.838 478.876 179.562 478.558 179.346 478.174C179.142 477.778 179.04 477.31 179.04 476.77H177.42C177.42 477.55 177.558 478.228 177.834 478.804C178.122 479.368 178.506 479.836 178.986 480.208C179.478 480.568 180.042 480.838 180.678 481.018C181.326 481.198 182.01 481.288 182.73 481.288C183.318 481.288 183.906 481.216 184.494 481.072C185.094 480.94 185.634 480.724 186.114 480.424C186.594 480.112 186.984 479.716 187.284 479.236C187.596 478.744 187.752 478.156 187.752 477.472C187.752 476.836 187.632 476.308 187.392 475.888C187.164 475.468 186.852 475.12 186.456 474.844C186.072 474.568 185.634 474.352 185.142 474.196C184.65 474.028 184.146 473.884 183.63 473.764C183.126 473.644 182.628 473.536 182.136 473.44C181.644 473.332 181.2 473.2 180.804 473.044C180.42 472.888 180.108 472.69 179.868 472.45C179.64 472.198 179.526 471.874 179.526 471.478C179.526 471.058 179.604 470.71 179.76 470.434C179.928 470.146 180.144 469.918 180.408 469.75C180.684 469.582 180.996 469.462 181.344 469.39C181.692 469.318 182.046 469.282 182.406 469.282C183.294 469.282 184.02 469.492 184.584 469.912C185.16 470.32 185.496 470.986 185.592 471.91Z" fill="#A892F3"/>
<path d="M191.99 468.148V481H200.918V479.56H193.7V475.114H200.378V473.674H193.7V469.588H200.864V468.148H191.99Z" fill="#A892F3"/>
<path d="M205.154 468.148V481H206.864V475.51H211.04C211.46 475.51 211.796 475.576 212.048 475.708C212.3 475.828 212.504 475.996 212.66 476.212C212.816 476.416 212.93 476.662 213.002 476.95C213.074 477.226 213.134 477.52 213.182 477.832C213.242 478.144 213.278 478.462 213.29 478.786C213.302 479.11 213.314 479.416 213.326 479.704C213.338 479.98 213.362 480.232 213.398 480.46C213.446 480.688 213.53 480.868 213.65 481H215.558C215.378 480.784 215.24 480.538 215.144 480.262C215.06 479.974 214.994 479.674 214.946 479.362C214.898 479.05 214.868 478.732 214.856 478.408C214.844 478.084 214.826 477.766 214.802 477.454C214.766 477.142 214.712 476.842 214.64 476.554C214.58 476.266 214.478 476.008 214.334 475.78C214.202 475.54 214.016 475.336 213.776 475.168C213.548 475 213.248 474.88 212.876 474.808V474.772C213.656 474.556 214.22 474.154 214.568 473.566C214.928 472.978 215.108 472.294 215.108 471.514C215.108 470.47 214.76 469.648 214.064 469.048C213.38 468.448 212.426 468.148 211.202 468.148H205.154ZM210.428 474.07H206.864V469.588H211.112C211.916 469.588 212.498 469.792 212.858 470.2C213.218 470.608 213.398 471.136 213.398 471.784C213.398 472.252 213.314 472.636 213.146 472.936C212.99 473.224 212.774 473.458 212.498 473.638C212.234 473.806 211.922 473.92 211.562 473.98C211.202 474.04 210.824 474.07 210.428 474.07Z" fill="#A892F3"/>
<path d="M224.378 481L228.95 468.148H227.168L223.46 479.29H223.424L219.752 468.148H217.916L222.434 481H224.378Z" fill="#A892F3"/>
<path d="M232.556 468.148V481H234.266V468.148H232.556Z" fill="#A892F3"/>
<path d="M248.338 472.018H250.048C249.952 471.334 249.748 470.734 249.436 470.218C249.124 469.69 248.734 469.252 248.266 468.904C247.798 468.556 247.264 468.292 246.664 468.112C246.064 467.932 245.428 467.842 244.756 467.842C243.772 467.842 242.896 468.022 242.128 468.382C241.372 468.73 240.736 469.21 240.22 469.822C239.716 470.434 239.332 471.154 239.068 471.982C238.804 472.798 238.672 473.674 238.672 474.61C238.672 475.546 238.792 476.422 239.032 477.238C239.284 478.054 239.656 478.762 240.148 479.362C240.64 479.962 241.258 480.436 242.002 480.784C242.746 481.12 243.616 481.288 244.612 481.288C246.256 481.288 247.552 480.838 248.5 479.938C249.448 479.038 250.006 477.778 250.174 476.158H248.464C248.428 476.686 248.32 477.178 248.14 477.634C247.96 478.09 247.708 478.486 247.384 478.822C247.072 479.146 246.694 479.404 246.25 479.596C245.818 479.776 245.32 479.866 244.756 479.866C243.988 479.866 243.328 479.722 242.776 479.434C242.224 479.146 241.768 478.762 241.408 478.282C241.06 477.79 240.802 477.22 240.634 476.572C240.466 475.912 240.382 475.216 240.382 474.484C240.382 473.812 240.466 473.164 240.634 472.54C240.802 471.916 241.06 471.364 241.408 470.884C241.768 470.392 242.218 470.002 242.758 469.714C243.31 469.426 243.97 469.282 244.738 469.282C245.638 469.282 246.412 469.51 247.06 469.966C247.72 470.422 248.146 471.106 248.338 472.018Z" fill="#A892F3"/>
<path d="M254.452 468.148V481H263.38V479.56H256.162V475.114H262.84V473.674H256.162V469.588H263.326V468.148H254.452Z" fill="#A892F3"/>
<path d="M275.05 471.91H276.67C276.646 471.202 276.508 470.596 276.256 470.092C276.016 469.576 275.68 469.15 275.248 468.814C274.828 468.478 274.336 468.232 273.772 468.076C273.208 467.92 272.596 467.842 271.936 467.842C271.348 467.842 270.772 467.92 270.208 468.076C269.656 468.22 269.158 468.448 268.714 468.76C268.282 469.06 267.934 469.45 267.67 469.93C267.406 470.398 267.274 470.956 267.274 471.604C267.274 472.192 267.388 472.684 267.616 473.08C267.856 473.464 268.168 473.782 268.552 474.034C268.948 474.274 269.392 474.472 269.884 474.628C270.376 474.772 270.874 474.904 271.378 475.024C271.894 475.132 272.398 475.24 272.89 475.348C273.382 475.456 273.82 475.6 274.204 475.78C274.6 475.948 274.912 476.17 275.14 476.446C275.38 476.722 275.5 477.082 275.5 477.526C275.5 477.994 275.404 478.378 275.212 478.678C275.02 478.978 274.768 479.218 274.456 479.398C274.144 479.566 273.79 479.686 273.394 479.758C273.01 479.83 272.626 479.866 272.242 479.866C271.762 479.866 271.294 479.806 270.838 479.686C270.382 479.566 269.98 479.38 269.632 479.128C269.296 478.876 269.02 478.558 268.804 478.174C268.6 477.778 268.498 477.31 268.498 476.77H266.878C266.878 477.55 267.016 478.228 267.292 478.804C267.58 479.368 267.964 479.836 268.444 480.208C268.936 480.568 269.5 480.838 270.136 481.018C270.784 481.198 271.468 481.288 272.188 481.288C272.776 481.288 273.364 481.216 273.952 481.072C274.552 480.94 275.092 480.724 275.572 480.424C276.052 480.112 276.442 479.716 276.742 479.236C277.054 478.744 277.21 478.156 277.21 477.472C277.21 476.836 277.09 476.308 276.85 475.888C276.622 475.468 276.31 475.12 275.914 474.844C275.53 474.568 275.092 474.352 274.6 474.196C274.108 474.028 273.604 473.884 273.088 473.764C272.584 473.644 272.086 473.536 271.594 473.44C271.102 473.332 270.658 473.2 270.262 473.044C269.878 472.888 269.566 472.69 269.326 472.45C269.098 472.198 268.984 471.874 268.984 471.478C268.984 471.058 269.062 470.71 269.218 470.434C269.386 470.146 269.602 469.918 269.866 469.75C270.142 469.582 270.454 469.462 270.802 469.39C271.15 469.318 271.504 469.282 271.864 469.282C272.752 469.282 273.478 469.492 274.042 469.912C274.618 470.32 274.954 470.986 275.05 471.91Z" fill="#A892F3"/>
<path d="M288.618 468.148V481H297.132V479.56H290.328V468.148H288.618Z" fill="#A892F3"/>
<path d="M302.043 469.588V481H303.753V469.588H308.037V468.148H297.759V469.588H302.043Z" fill="#A892F3"/>
<path d="M313.333 479.56V469.588H316.213C317.005 469.588 317.671 469.702 318.211 469.93C318.751 470.146 319.189 470.47 319.525 470.902C319.873 471.322 320.119 471.838 320.263 472.45C320.419 473.05 320.497 473.734 320.497 474.502C320.497 475.294 320.413 475.972 320.245 476.536C320.089 477.088 319.885 477.55 319.633 477.922C319.381 478.294 319.093 478.588 318.769 478.804C318.457 479.02 318.139 479.188 317.815 479.308C317.491 479.416 317.185 479.488 316.897 479.524C316.609 479.548 316.369 479.56 316.177 479.56H313.333ZM311.623 468.148V481H316.033C317.101 481 318.025 480.85 318.805 480.55C319.585 480.25 320.227 479.818 320.731 479.254C321.235 478.678 321.607 477.976 321.847 477.148C322.087 476.308 322.207 475.348 322.207 474.268C322.207 472.204 321.673 470.668 320.605 469.66C319.537 468.652 318.013 468.148 316.033 468.148H311.623Z" fill="#A892F3"/>
<g filter="url(#filter0_d_3_65)">
<path d="M74 138.984C55 132.468 41.5 125.484 23 126.984C31 129 38.5054 128.797 53 138.984C67.4946 149.172 78.6938 158.661 90.5 162.767C102 166.767 123.5 168.767 144 157.267C164.5 145.767 181.5 127.267 194.5 132.767L197.456 134.659C212.391 144.468 202.123 147.868 199.219 152.774C196.315 157.68 198.63 162.464 204.68 163.09C210.731 163.716 212.792 163.764 215.806 169.778C218.82 175.791 229.209 177.61 229.099 166.69C228.628 160.857 232.353 162.399 234.281 162.929C241.863 165.531 249.853 160.986 242.018 153.647C240.792 152.446 238.105 149.772 237.16 148.682C235.978 147.321 234.315 145.826 237.568 141.535C240.822 137.244 239.784 129.699 232.107 131.219C224.43 132.739 223.352 138.825 221.5 134.487C219.744 130.375 217.098 126.455 215 122.767L211.5 117.767C209 114.767 206.1 112.467 214.5 109.267C225 105.267 244.5 101.767 251 109.267L253 111.267C264 122.767 256.143 124.528 253.426 128.797C250.71 133.065 252.626 137.375 257.975 138.104C263.324 138.832 265.151 138.933 267.652 144.354C270.154 149.775 279.317 151.685 279.532 141.996C279.282 136.808 282.541 138.283 284.237 138.808C290.887 141.333 298.104 137.53 291.364 130.796C290.312 129.696 288.005 127.247 287.198 126.253C286.189 125.012 284.756 123.639 287.765 119.925C290.773 116.212 290.069 109.49 283.216 110.619C276.362 111.747 272.019 117.668 270.5 113.767C266.5 105.767 270 100.267 272.5 98.767C278.5 96.267 283.5 102.267 297.5 103.767C308.7 104.967 317.5 100.6 320.5 98.267C329.42 90.799 330.939 84.0196 329.162 78.5C326.747 71 321.5 67 313.5 64.267C305.5 61.534 295 62.767 289.5 64.267C284.305 65.6839 274.5 69.767 270 68.267C265.5 66.767 264.89 56.8781 267.89 50.3781C268.132 49.7857 268.365 49.202 268.586 48.6328C270.105 44.7318 271.362 50.0954 278.216 51.2237C285.069 52.352 285.773 45.63 282.765 41.9168C279.756 38.2035 281.189 36.8305 282.198 35.5888C283.005 34.5954 285.312 32.1462 286.364 31.0457C293.104 24.3118 285.887 20.509 279.237 23.0343C277.541 23.5596 274.282 25.0341 274.532 19.8464C274.317 10.1574 265.154 12.0677 262.652 17.4883C260.151 22.9089 258.324 23.0104 252.975 23.7387C247.626 24.467 245.71 28.7772 248.426 33.0456C250.549 36.3814 255.201 38.9137 252.563 44.3954L252.5 44.4841C251 46.9841 249 50.267 244.5 56.4841C240.025 62.6667 235.5 60.4841 231 59.4841C226.5 58.4841 218.5 56.4841 206.5 56.4841C194.5 56.4841 189.5 59 183.5 62.5C177.5 66 175.5 68.7171 174 68.7171C172.5 68.7171 165.55 62.8165 163 60.267C160 57.267 156.5 54.267 153.5 50.9841C150.318 47.502 156 48.4841 159.5 41.4841C163 34.4841 156 31.4841 151 33.4841C146 35.4841 145 33.4841 144 31.9841C143.2 30.7841 141.333 27.4841 140.5 25.9841C135.5 16.4841 129 22.9841 129.5 30.9841C129.5 32.9841 130 36.9841 124.5 34.9841C114 31.9841 113 42.4841 118 46.9841C123 51.4841 122.5 53.4841 121.5 59.4841C120.5 65.4841 124.5 68.9841 130 67.4841C135.5 65.9841 141.5 56.9841 147 73.9841C152.5 90.9841 144.361 113.966 133 127.267C112.5 151.267 93 145.5 74 138.984Z" fill="black"/>
<path d="M74 138.984C55 132.468 41.5 125.484 23 126.984C31 129 38.5054 128.797 53 138.984C67.4946 149.172 78.6938 158.661 90.5 162.767C102 166.767 123.5 168.767 144 157.267C164.5 145.767 181.5 127.267 194.5 132.767L197.456 134.659C212.391 144.468 202.123 147.868 199.219 152.774C196.315 157.68 198.63 162.464 204.68 163.09C210.731 163.716 212.792 163.764 215.806 169.778C218.82 175.791 229.209 177.61 229.099 166.69C228.628 160.857 232.353 162.399 234.281 162.929C241.863 165.531 249.853 160.986 242.018 153.647C240.792 152.446 238.105 149.772 237.16 148.682C235.978 147.321 234.315 145.826 237.568 141.535C240.822 137.244 239.784 129.699 232.107 131.219C224.43 132.739 223.352 138.825 221.5 134.487C219.744 130.375 217.098 126.455 215 122.767L211.5 117.767C209 114.767 206.1 112.467 214.5 109.267C225 105.267 244.5 101.767 251 109.267L253 111.267C264 122.767 256.143 124.528 253.426 128.797C250.71 133.065 252.626 137.375 257.975 138.104C263.324 138.832 265.151 138.933 267.652 144.354C270.154 149.775 279.317 151.685 279.532 141.996C279.282 136.808 282.541 138.283 284.237 138.808C290.887 141.333 298.104 137.53 291.364 130.796C290.312 129.696 288.005 127.247 287.198 126.253C286.189 125.012 284.756 123.639 287.765 119.925C290.773 116.212 290.069 109.49 283.216 110.619C276.362 111.747 272.019 117.668 270.5 113.767C266.5 105.767 270 100.267 272.5 98.767C278.5 96.267 283.5 102.267 297.5 103.767C308.7 104.967 317.5 100.6 320.5 98.267C329.42 90.799 330.939 84.0196 329.162 78.5C326.747 71 321.5 67 313.5 64.267C305.5 61.534 295 62.767 289.5 64.267C284.305 65.6839 274.5 69.767 270 68.267C265.5 66.767 264.89 56.8781 267.89 50.3781C268.132 49.7857 268.365 49.202 268.586 48.6328C270.105 44.7318 271.362 50.0954 278.216 51.2237C285.069 52.352 285.773 45.63 282.765 41.9168C279.756 38.2035 281.189 36.8305 282.198 35.5888C283.005 34.5954 285.312 32.1462 286.364 31.0457C293.104 24.3118 285.887 20.509 279.237 23.0343C277.541 23.5596 274.282 25.0341 274.532 19.8464C274.317 10.1574 265.154 12.0677 262.652 17.4883C260.151 22.9089 258.324 23.0104 252.975 23.7387C247.626 24.467 245.71 28.7772 248.426 33.0456C250.549 36.3814 255.201 38.9137 252.563 44.3954L252.5 44.4841C251 46.9841 249 50.267 244.5 56.4841C240.025 62.6667 235.5 60.4841 231 59.4841C226.5 58.4841 218.5 56.4841 206.5 56.4841C194.5 56.4841 189.5 59 183.5 62.5C177.5 66 175.5 68.7171 174 68.7171C172.5 68.7171 165.55 62.8165 163 60.267C160 57.267 156.5 54.267 153.5 50.9841C150.318 47.502 156 48.4841 159.5 41.4841C163 34.4841 156 31.4841 151 33.4841C146 35.4841 145 33.4841 144 31.9841C143.2 30.7841 141.333 27.4841 140.5 25.9841C135.5 16.4841 129 22.9841 129.5 30.9841C129.5 32.9841 130 36.9841 124.5 34.9841C114 31.9841 113 42.4841 118 46.9841C123 51.4841 122.5 53.4841 121.5 59.4841C120.5 65.4841 124.5 68.9841 130 67.4841C135.5 65.9841 141.5 56.9841 147 73.9841C152.5 90.9841 144.361 113.966 133 127.267C112.5 151.267 93 145.5 74 138.984Z" stroke="#A892F3" stroke-width="4" stroke-linejoin="round"/>
</g>
<path d="M23.0691 221.164C23.0691 216.598 23.5497 213.553 24.5109 212.031C25.4721 210.509 26.8338 209.748 28.5961 209.748C30.3583 209.748 31.72 210.509 32.6812 212.031C33.6424 213.553 34.123 216.598 34.123 221.164V293.498C34.123 297.847 33.6424 300.891 32.6812 302.631C31.72 304.153 30.3583 304.914 28.5961 304.914C26.8338 304.914 25.4721 304.153 24.5109 302.631C23.5497 300.891 23.0691 297.847 23.0691 293.498V221.164ZM57.1921 193.283H34.123V204.374C31.5598 200.242 28.8364 196.98 25.9527 194.588C23.0691 192.196 20.1854 191 17.3018 191C11.6947 191 7.36929 193.175 4.32545 197.524C1.44182 201.873 0 207.962 0 215.79V306.871C0 314.7 1.44182 320.789 4.32545 325.138C7.36929 329.487 11.6947 331.662 17.3018 331.662C24.5109 331.662 29.7976 327.421 33.1618 318.94H33.6424V395.367C33.6424 399.933 33.1618 402.978 32.2006 404.5C31.2394 406.022 29.8777 406.783 28.1154 406.783C26.3532 406.783 24.9915 406.022 24.0303 404.5C23.0691 402.978 22.5885 399.933 22.5885 395.367V345.117H0V390.302C0 399.871 2.56323 407.482 7.68969 413.136C12.8162 418.79 19.7849 421.617 28.5961 421.617C37.4072 421.617 44.3759 418.79 49.5024 413.136C54.6289 407.482 57.1921 399.871 57.1921 390.302V193.283Z" fill="#A892F3"/>
<defs>
<filter id="filter0_d_3_65" x="17" y="11" width="318.815" height="173.593" filterUnits="userSpaceOnUse" color-interpolation-filters="sRGB">
<feFlood flood-opacity="0" result="BackgroundImageFix"/>
<feColorMatrix in="SourceAlpha" type="matrix" values="0 0 0 0 0 0 0 0 0 0 0 0 0 0 0 0 0 0 127 0" result="hardAlpha"/>
<feOffset dy="4"/>
<feGaussianBlur stdDeviation="2"/>
<feComposite in2="hardAlpha" operator="out"/>
<feColorMatrix type="matrix" values="0 0 0 0 0.255234 0 0 0 0 0.169906 0 0 0 0 0.546126 0 0 0 0.5 0"/>
<feBlend mode="normal" in2="BackgroundImageFix" result="effect1_dropShadow_3_65"/>
<feBlend mode="normal" in="SourceGraphic" in2="effect1_dropShadow_3_65" result="shape"/>
</filter>
</defs>
</svg>
