<svg width="352" height="503" viewBox="0 0 352 503" fill="none" xmlns="http://www.w3.org/2000/svg">

<g filter="url(#filter0_d_3_65)">
<path d="M74 138.984C55 132.468 41.5 125.484 23 126.984C31 129 38.5054 128.797 53 138.984C67.4946 149.172 78.6938 158.661 90.5 162.767C102 166.767 123.5 168.767 144 157.267C164.5 145.767 181.5 127.267 194.5 132.767L197.456 134.659C212.391 144.468 202.123 147.868 199.219 152.774C196.315 157.68 198.63 162.464 204.68 163.09C210.731 163.716 212.792 163.764 215.806 169.778C218.82 175.791 229.209 177.61 229.099 166.69C228.628 160.857 232.353 162.399 234.281 162.929C241.863 165.531 249.853 160.986 242.018 153.647C240.792 152.446 238.105 149.772 237.16 148.682C235.978 147.321 234.315 145.826 237.568 141.535C240.822 137.244 239.784 129.699 232.107 131.219C224.43 132.739 223.352 138.825 221.5 134.487C219.744 130.375 217.098 126.455 215 122.767L211.5 117.767C209 114.767 206.1 112.467 214.5 109.267C225 105.267 244.5 101.767 251 109.267L253 111.267C264 122.767 256.143 124.528 253.426 128.797C250.71 133.065 252.626 137.375 257.975 138.104C263.324 138.832 265.151 138.933 267.652 144.354C270.154 149.775 279.317 151.685 279.532 141.996C279.282 136.808 282.541 138.283 284.237 138.808C290.887 141.333 298.104 137.53 291.364 130.796C290.312 129.696 288.005 127.247 287.198 126.253C286.189 125.012 284.756 123.639 287.765 119.925C290.773 116.212 290.069 109.49 283.216 110.619C276.362 111.747 272.019 117.668 270.5 113.767C266.5 105.767 270 100.267 272.5 98.767C278.5 96.267 283.5 102.267 297.5 103.767C308.7 104.967 317.5 100.6 320.5 98.267C329.42 90.799 330.939 84.0196 329.162 78.5C326.747 71 321.5 67 313.5 64.267C305.5 61.534 295 62.767 289.5 64.267C284.305 65.6839 274.5 69.767 270 68.267C265.5 66.767 264.89 56.8781 267.89 50.3781C268.132 49.7857 268.365 49.202 268.586 48.6328C270.105 44.7318 271.362 50.0954 278.216 51.2237C285.069 52.352 285.773 45.63 282.765 41.9168C279.756 38.2035 281.189 36.8305 282.198 35.5888C283.005 34.5954 285.312 32.1462 286.364 31.0457C293.104 24.3118 285.887 20.509 279.237 23.0343C277.541 23.5596 274.282 25.0341 274.532 19.8464C274.317 10.1574 265.154 12.0677 262.652 17.4883C260.151 22.9089 258.324 23.0104 252.975 23.7387C247.626 24.467 245.71 28.7772 248.426 33.0456C250.549 36.3814 255.201 38.9137 252.563 44.3954L252.5 44.4841C251 46.9841 249 50.267 244.5 56.4841C240.025 62.6667 235.5 60.4841 231 59.4841C226.5 58.4841 218.5 56.4841 206.5 56.4841C194.5 56.4841 189.5 59 183.5 62.5C177.5 66 175.5 68.7171 174 68.7171C172.5 68.7171 165.55 62.8165 163 60.267C160 57.267 156.5 54.267 153.5 50.9841C150.318 47.502 156 48.4841 159.5 41.4841C163 34.4841 156 31.4841 151 33.4841C146 35.4841 145 33.4841 144 31.9841C143.2 30.7841 141.333 27.4841 140.5 25.9841C135.5 16.4841 129 22.9841 129.5 30.9841C129.5 32.9841 130 36.9841 124.5 34.9841C114 31.9841 113 42.4841 118 46.9841C123 51.4841 122.5 53.4841 121.5 59.4841C120.5 65.4841 124.5 68.9841 130 67.4841C135.5 65.9841 141.5 56.9841 147 73.9841C152.5 90.9841 144.361 113.966 133 127.267C112.5 151.267 93 145.5 74 138.984Z" fill="black"/>
<path d="M74 138.984C55 132.468 41.5 125.484 23 126.984C31 129 38.5054 128.797 53 138.984C67.4946 149.172 78.6938 158.661 90.5 162.767C102 166.767 123.5 168.767 144 157.267C164.5 145.767 181.5 127.267 194.5 132.767L197.456 134.659C212.391 144.468 202.123 147.868 199.219 152.774C196.315 157.68 198.63 162.464 204.68 163.09C210.731 163.716 212.792 163.764 215.806 169.778C218.82 175.791 229.209 177.61 229.099 166.69C228.628 160.857 232.353 162.399 234.281 162.929C241.863 165.531 249.853 160.986 242.018 153.647C240.792 152.446 238.105 149.772 237.16 148.682C235.978 147.321 234.315 145.826 237.568 141.535C240.822 137.244 239.784 129.699 232.107 131.219C224.43 132.739 223.352 138.825 221.5 134.487C219.744 130.375 217.098 126.455 215 122.767L211.5 117.767C209 114.767 206.1 112.467 214.5 109.267C225 105.267 244.5 101.767 251 109.267L253 111.267C264 122.767 256.143 124.528 253.426 128.797C250.71 133.065 252.626 137.375 257.975 138.104C263.324 138.832 265.151 138.933 267.652 144.354C270.154 149.775 279.317 151.685 279.532 141.996C279.282 136.808 282.541 138.283 284.237 138.808C290.887 141.333 298.104 137.53 291.364 130.796C290.312 129.696 288.005 127.247 287.198 126.253C286.189 125.012 284.756 123.639 287.765 119.925C290.773 116.212 290.069 109.49 283.216 110.619C276.362 111.747 272.019 117.668 270.5 113.767C266.5 105.767 270 100.267 272.5 98.767C278.5 96.267 283.5 102.267 297.5 103.767C308.7 104.967 317.5 100.6 320.5 98.267C329.42 90.799 330.939 84.0196 329.162 78.5C326.747 71 321.5 67 313.5 64.267C305.5 61.534 295 62.767 289.5 64.267C284.305 65.6839 274.5 69.767 270 68.267C265.5 66.767 264.89 56.8781 267.89 50.3781C268.132 49.7857 268.365 49.202 268.586 48.6328C270.105 44.7318 271.362 50.0954 278.216 51.2237C285.069 52.352 285.773 45.63 282.765 41.9168C279.756 38.2035 281.189 36.8305 282.198 35.5888C283.005 34.5954 285.312 32.1462 286.364 31.0457C293.104 24.3118 285.887 20.509 279.237 23.0343C277.541 23.5596 274.282 25.0341 274.532 19.8464C274.317 10.1574 265.154 12.0677 262.652 17.4883C260.151 22.9089 258.324 23.0104 252.975 23.7387C247.626 24.467 245.71 28.7772 248.426 33.0456C250.549 36.3814 255.201 38.9137 252.563 44.3954L252.5 44.4841C251 46.9841 249 50.267 244.5 56.4841C240.025 62.6667 235.5 60.4841 231 59.4841C226.5 58.4841 218.5 56.4841 206.5 56.4841C194.5 56.4841 189.5 59 183.5 62.5C177.5 66 175.5 68.7171 174 68.7171C172.5 68.7171 165.55 62.8165 163 60.267C160 57.267 156.5 54.267 153.5 50.9841C150.318 47.502 156 48.4841 159.5 41.4841C163 34.4841 156 31.4841 151 33.4841C146 35.4841 145 33.4841 144 31.9841C143.2 30.7841 141.333 27.4841 140.5 25.9841C135.5 16.4841 129 22.9841 129.5 30.9841C129.5 32.9841 130 36.9841 124.5 34.9841C114 31.9841 113 42.4841 118 46.9841C123 51.4841 122.5 53.4841 121.5 59.4841C120.5 65.4841 124.5 68.9841 130 67.4841C135.5 65.9841 141.5 56.9841 147 73.9841C152.5 90.9841 144.361 113.966 133 127.267C112.5 151.267 93 145.5 74 138.984Z" stroke="#A892F3" stroke-width="4" stroke-linejoin="round"/>
</g>

<defs>
<filter id="filter0_d_3_65" x="17" y="11" width="318.815" height="173.593" filterUnits="userSpaceOnUse" color-interpolation-filters="sRGB">
<feFlood flood-opacity="0" result="BackgroundImageFix"/>
<feColorMatrix in="SourceAlpha" type="matrix" values="0 0 0 0 0 0 0 0 0 0 0 0 0 0 0 0 0 0 127 0" result="hardAlpha"/>
<feOffset dy="4"/>
<feGaussianBlur stdDeviation="2"/>
<feComposite in2="hardAlpha" operator="out"/>
<feColorMatrix type="matrix" values="0 0 0 0 0.255234 0 0 0 0 0.169906 0 0 0 0 0.546126 0 0 0 0.5 0"/>
<feBlend mode="normal" in2="BackgroundImageFix" result="effect1_dropShadow_3_65"/>
<feBlend mode="normal" in="SourceGraphic" in2="effect1_dropShadow_3_65" result="shape"/>
</filter>
</defs>
</svg>
