<?xml version="1.0" encoding="UTF-8" standalone="no"?>
<svg
   width="345"
   height="85"
   viewBox="0 0 345 85"
   fill="none"
   version="1.1"
   id="svg168"
   sodipodi:docname="gekko-logo-landscape.svg"
   inkscape:version="1.1.2 (b8e25be8, 2022-02-05)"
   xmlns:inkscape="http://www.inkscape.org/namespaces/inkscape"
   xmlns:sodipodi="http://sodipodi.sourceforge.net/DTD/sodipodi-0.dtd"
   xmlns="http://www.w3.org/2000/svg"
   xmlns:svg="http://www.w3.org/2000/svg">
  <sodipodi:namedview
     id="namedview170"
     pagecolor="#ffffff"
     bordercolor="#666666"
     borderopacity="1.0"
     inkscape:pageshadow="2"
     inkscape:pageopacity="0.0"
     inkscape:pagecheckerboard="false"
     showgrid="false"
     height="502px"
     showborder="true"
     showguides="true"
     inkscape:guide-bbox="true"
     inkscape:zoom="1.9115477"
     inkscape:cx="219.71725"
     inkscape:cy="85.532786"
     inkscape:window-width="1680"
     inkscape:window-height="997"
     inkscape:window-x="0"
     inkscape:window-y="25"
     inkscape:window-maximized="1"
     inkscape:current-layer="svg168">
    <sodipodi:guide
       position="-84.740791,146.19253"
       orientation="0,-1"
       id="guide351" />
    <sodipodi:guide
       position="-4.2370395,229.87406"
       orientation="0,-1"
       id="guide353" />
  </sodipodi:namedview>
  <rect
     x="174.86046"
     width="51.264652"
     height="60.856182"
     fill="#0c3bf5"
     id="rect89"
     y="-0.50753784"
     style="stroke-width:0.219121" />
  <path
     d="m 249.67896,9.9273136 c 0,-2.2264084 -0.88774,-3.9974416 -2.66366,-5.3130902 -1.77548,-1.3156452 -4.18944,-1.9734722 -7.24153,-1.9734722 -3.0518,0 -5.4658,0.657827 -7.24142,1.9734722 -1.77598,1.3156486 -2.66368,3.0866818 -2.66368,5.3130902 V 49.016986 c 0,2.226629 0.8877,3.997663 2.66368,5.313306 1.77562,1.315653 4.18962,1.97349 7.24142,1.97349 3.05209,0 5.46605,-0.657837 7.24153,-1.97349 1.77592,-1.315643 2.66366,-3.086677 2.66366,-5.313306 z m -7.99068,40.7994994 c 0,0.910751 -0.16656,1.492724 -0.4995,1.74566 -0.27743,0.253182 -0.74913,0.379517 -1.41501,0.379517 -0.66568,0 -1.16519,-0.126335 -1.49828,-0.379517 -0.27761,-0.252936 -0.41616,-0.834909 -0.41616,-1.74566 V 8.2177144 c 0,-0.9109975 0.13855,-1.4927294 0.41616,-1.7458979 0.33309,-0.2529391 0.8326,-0.3795234 1.49828,-0.3795234 0.66588,0 1.13758,0.1265843 1.41501,0.3795234 0.33294,0.2531685 0.4995,0.8349004 0.4995,1.7458979 z"
     fill="#a892f3"
     id="path91"
     style="stroke-width:0.283911" />
  <path
     d="M 209.56796,56.160196 V 29.024675 h 0.20777 l 5.33424,27.135521 h 7.5512 l -5.75001,-29.089911 5.61141,-24.4295338 h -7.13547 l -5.61137,24.1289048 h -0.20777 V 2.6407512 h -7.34333 V 56.160196 Z"
     fill="#000000"
     id="path93"
     style="stroke-width:0.283911" />
  <path
     d="M 191.41741,56.160196 V 29.024675 h -0.20778 l -5.33427,27.135521 h -7.55122 L 184.0742,27.070285 178.46269,2.6407512 h 7.13548 l 5.61146,24.1289048 h 0.20778 V 2.6407512 h 7.34325 V 56.160196 Z"
     fill="#000000"
     id="path95"
     style="stroke-width:0.283911" />
  <path
     d="m 163.12604,34.197915 v 16.485612 c 0,0.911 -0.16669,1.492724 -0.49951,1.745907 -0.27756,0.252936 -0.74906,0.379523 -1.41499,0.379523 -0.66583,0 -1.16529,-0.126587 -1.49823,-0.379523 -0.27763,-0.253183 -0.41618,-0.834907 -0.41618,-1.745907 V 31.371619 H 171.1167 V 9.9273136 c 0,-2.2264084 -0.88782,-3.9974416 -2.66373,-5.3130902 -1.7757,-1.3156452 -4.18959,-1.9734722 -7.24143,-1.9734722 -3.05206,0 -5.46595,0.657827 -7.24163,1.9734722 -1.77576,1.3156486 -2.66359,3.0866818 -2.66359,5.3130902 V 48.973935 c 0,2.226406 0.88783,3.997429 2.66359,5.313071 1.77568,1.315663 4.18957,1.97348 7.24163,1.97348 3.05184,0 5.46573,-0.657817 7.24143,-1.97348 1.77591,-1.315642 2.66373,-3.086665 2.66373,-5.313071 v -14.77602 z m 0,-7.911572 h -3.82891 V 8.2177144 c 0,-0.9109975 0.13855,-1.4927294 0.41618,-1.7458979 0.33294,-0.2529391 0.8324,-0.3795234 1.49823,-0.3795234 0.66593,0 1.13743,0.1265843 1.41499,0.3795234 0.33282,0.2531685 0.49951,0.8349004 0.49951,1.7458979 z"
     fill="#a892f3"
     id="path97"
     style="stroke-width:0.283911" />
  <g
     filter="url(#filter0_d_3_65)"
     id="g145"
     transform="matrix(0.36291765,0,0,0.36291765,-4.3497495,-3.9605961)">
    <path
       d="m 74,138.984 c -19,-6.516 -32.5,-13.5 -51,-12 8,2.016 15.5054,1.813 30,12 14.4946,10.188 25.6938,19.677 37.5,23.783 11.5,4 33,6 53.5,-5.5 20.5,-11.5 37.5,-30 50.5,-24.5 l 2.956,1.892 c 14.935,9.809 4.667,13.209 1.763,18.115 -2.904,4.906 -0.589,9.69 5.461,10.316 6.051,0.626 8.112,0.674 11.126,6.688 3.014,6.013 13.403,7.832 13.293,-3.088 -0.471,-5.833 3.254,-4.291 5.182,-3.761 7.582,2.602 15.572,-1.943 7.737,-9.282 -1.226,-1.201 -3.913,-3.875 -4.858,-4.965 -1.182,-1.361 -2.845,-2.856 0.408,-7.147 3.254,-4.291 2.216,-11.836 -5.461,-10.316 -7.677,1.52 -8.755,7.606 -10.607,3.268 -1.756,-4.112 -4.402,-8.032 -6.5,-11.72 l -3.5,-5 c -2.5,-3 -5.4,-5.3 3,-8.5 10.5,-4 30,-7.5 36.5,0 l 2,2 c 11,11.5 3.143,13.261 0.426,17.53 -2.716,4.268 -0.8,8.578 4.549,9.307 5.349,0.728 7.176,0.829 9.677,6.25 2.502,5.421 11.665,7.331 11.88,-2.358 -0.25,-5.188 3.009,-3.713 4.705,-3.188 6.65,2.525 13.867,-1.278 7.127,-8.012 -1.052,-1.1 -3.359,-3.549 -4.166,-4.543 -1.009,-1.241 -2.442,-2.614 0.567,-6.328 3.008,-3.713 2.304,-10.435 -4.549,-9.306 -6.854,1.128 -11.197,7.049 -12.716,3.148 -4,-8 -0.5,-13.5 2,-15 6,-2.5 11,3.5 25,5 11.2,1.2 20,-3.167 23,-5.5 8.92,-7.468 10.439,-14.2474 8.662,-19.767 C 326.747,71 321.5,67 313.5,64.267 c -8,-2.733 -18.5,-1.5 -24,0 -5.195,1.4169 -15,5.5 -19.5,4 -4.5,-1.5 -5.11,-11.3889 -2.11,-17.8889 0.242,-0.5924 0.475,-1.1761 0.696,-1.7453 1.519,-3.901 2.776,1.4626 9.63,2.5909 6.853,1.1283 7.557,-5.5937 4.549,-9.3069 -3.009,-3.7133 -1.576,-5.0863 -0.567,-6.328 0.807,-0.9934 3.114,-3.4426 4.166,-4.5431 6.74,-6.7339 -0.477,-10.5367 -7.127,-8.0114 -1.696,0.5253 -4.955,1.9998 -4.705,-3.1879 -0.215,-9.689 -9.378,-7.7787 -11.88,-2.3581 -2.501,5.4206 -4.328,5.5221 -9.677,6.2504 -5.349,0.7283 -7.265,5.0385 -4.549,9.3069 2.123,3.3358 6.775,5.8681 4.137,11.3498 l -0.063,0.0887 c -1.5,2.5 -3.5,5.7829 -8,12 -4.475,6.1826 -9,4 -13.5,3 -4.5,-1 -12.5,-3 -24.5,-3 -12,0 -17,2.5159 -23,6.0159 -6,3.5 -8,6.2171 -9.5,6.2171 -1.5,0 -8.45,-5.9006 -11,-8.4501 -3,-3 -6.5,-6 -9.5,-9.2829 -3.182,-3.4821 2.5,-2.5 6,-9.5 3.5,-7 -3.5,-10 -8.5,-8 -5,2 -6,0 -7,-1.5 -0.8,-1.2 -2.667,-4.5 -3.5,-6 -5,-9.5 -11.5,-3 -11,5 0,2 0.5,6 -5,4 -10.5,-3 -11.5,7.5 -6.5,12 5,4.5 4.5,6.5 3.5,12.5 -1,6 3,9.5 8.5,8 5.5,-1.5 11.5,-10.5 17,6.5 5.5,17 -2.639,39.9819 -14,53.2829 -20.5,24 -40,18.233 -59,11.717 z"
       fill="#000000"
       id="path141" />
    <path
       d="m 74,138.984 c -19,-6.516 -32.5,-13.5 -51,-12 8,2.016 15.5054,1.813 30,12 14.4946,10.188 25.6938,19.677 37.5,23.783 11.5,4 33,6 53.5,-5.5 20.5,-11.5 37.5,-30 50.5,-24.5 l 2.956,1.892 c 14.935,9.809 4.667,13.209 1.763,18.115 -2.904,4.906 -0.589,9.69 5.461,10.316 6.051,0.626 8.112,0.674 11.126,6.688 3.014,6.013 13.403,7.832 13.293,-3.088 -0.471,-5.833 3.254,-4.291 5.182,-3.761 7.582,2.602 15.572,-1.943 7.737,-9.282 -1.226,-1.201 -3.913,-3.875 -4.858,-4.965 -1.182,-1.361 -2.845,-2.856 0.408,-7.147 3.254,-4.291 2.216,-11.836 -5.461,-10.316 -7.677,1.52 -8.755,7.606 -10.607,3.268 -1.756,-4.112 -4.402,-8.032 -6.5,-11.72 l -3.5,-5 c -2.5,-3 -5.4,-5.3 3,-8.5 10.5,-4 30,-7.5 36.5,0 l 2,2 c 11,11.5 3.143,13.261 0.426,17.53 -2.716,4.268 -0.8,8.578 4.549,9.307 5.349,0.728 7.176,0.829 9.677,6.25 2.502,5.421 11.665,7.331 11.88,-2.358 -0.25,-5.188 3.009,-3.713 4.705,-3.188 6.65,2.525 13.867,-1.278 7.127,-8.012 -1.052,-1.1 -3.359,-3.549 -4.166,-4.543 -1.009,-1.241 -2.442,-2.614 0.567,-6.328 3.008,-3.713 2.304,-10.435 -4.549,-9.306 -6.854,1.128 -11.197,7.049 -12.716,3.148 -4,-8 -0.5,-13.5 2,-15 6,-2.5 11,3.5 25,5 11.2,1.2 20,-3.167 23,-5.5 8.92,-7.468 10.439,-14.2474 8.662,-19.767 C 326.747,71 321.5,67 313.5,64.267 c -8,-2.733 -18.5,-1.5 -24,0 -5.195,1.4169 -15,5.5 -19.5,4 -4.5,-1.5 -5.11,-11.3889 -2.11,-17.8889 0.242,-0.5924 0.475,-1.1761 0.696,-1.7453 1.519,-3.901 2.776,1.4626 9.63,2.5909 6.853,1.1283 7.557,-5.5937 4.549,-9.3069 -3.009,-3.7133 -1.576,-5.0863 -0.567,-6.328 0.807,-0.9934 3.114,-3.4426 4.166,-4.5431 6.74,-6.7339 -0.477,-10.5367 -7.127,-8.0114 -1.696,0.5253 -4.955,1.9998 -4.705,-3.1879 -0.215,-9.689 -9.378,-7.7787 -11.88,-2.3581 -2.501,5.4206 -4.328,5.5221 -9.677,6.2504 -5.349,0.7283 -7.265,5.0385 -4.549,9.3069 2.123,3.3358 6.775,5.8681 4.137,11.3498 l -0.063,0.0887 c -1.5,2.5 -3.5,5.7829 -8,12 -4.475,6.1826 -9,4 -13.5,3 -4.5,-1 -12.5,-3 -24.5,-3 -12,0 -17,2.5159 -23,6.0159 -6,3.5 -8,6.2171 -9.5,6.2171 -1.5,0 -8.45,-5.9006 -11,-8.4501 -3,-3 -6.5,-6 -9.5,-9.2829 -3.182,-3.4821 2.5,-2.5 6,-9.5 3.5,-7 -3.5,-10 -8.5,-8 -5,2 -6,0 -7,-1.5 -0.8,-1.2 -2.667,-4.5 -3.5,-6 -5,-9.5 -11.5,-3 -11,5 0,2 0.5,6 -5,4 -10.5,-3 -11.5,7.5 -6.5,12 5,4.5 4.5,6.5 3.5,12.5 -1,6 3,9.5 8.5,8 5.5,-1.5 11.5,-10.5 17,6.5 5.5,17 -2.639,39.9819 -14,53.2829 -20.5,24 -40,18.233 -59,11.717 z"
       stroke="#a892f3"
       stroke-width="4"
       stroke-linejoin="round"
       id="path143" />
  </g>
  <path
     d="m 135.74306,9.659711 c 0,-1.0624749 0.1664,-1.7710306 0.49937,-2.1251843 0.33296,-0.3541608 0.80466,-0.5312423 1.41508,-0.5312423 0.61028,0 1.08201,0.1770815 1.41501,0.5312423 0.33297,0.3541537 0.49936,1.0627094 0.49936,2.1251843 v 16.83164 c 0,1.011989 -0.16639,1.720299 -0.49936,2.12519 -0.333,0.35416 -0.80473,0.531232 -1.41501,0.531232 -0.61042,0 -1.08212,-0.177072 -1.41508,-0.531232 -0.33297,-0.404891 -0.49937,-1.113201 -0.49937,-2.12519 z m 11.81961,-6.4877212 h -7.99079 v 2.5808016 c -0.88794,-0.9614911 -1.83119,-1.7205318 -2.83003,-2.2771335 -0.99879,-0.5566038 -1.9977,-0.8349067 -2.99649,-0.8349067 -1.94215,0 -3.44049,0.5061102 -4.49485,1.5180942 -0.99881,1.0119828 -1.49824,2.4288485 -1.49824,4.2503775 V 29.603153 c 0,1.821755 0.49943,3.238619 1.49824,4.250601 1.05436,1.011981 2.5527,1.518093 4.49485,1.518093 2.49707,0 4.3283,-0.986848 5.49363,-2.960311 h 0.1665 v 17.784052 c 0,1.062449 -0.1665,1.771024 -0.49943,2.125177 -0.33298,0.354153 -0.80467,0.531225 -1.4151,0.531225 -0.61034,0 -1.08202,-0.177062 -1.41493,-0.531225 -0.33297,-0.354153 -0.49943,-1.062728 -0.49943,-2.125177 V 38.502742 h -7.82433 v 10.514244 c 0,2.226629 0.88796,3.997663 2.66362,5.313306 1.77563,1.315653 4.18943,1.97349 7.24162,1.97349 3.05197,0 5.46581,-0.657837 7.24164,-1.97349 1.77557,-1.315643 2.66352,-3.086677 2.66352,-5.313306 z"
     fill="#a892f3"
     id="path147"
     style="stroke-width:0.283911" />
  <defs
     id="defs166">
    <filter
       id="filter0_d_3_65"
       x="17"
       y="11"
       width="318.815"
       height="173.593"
       filterUnits="userSpaceOnUse"
       color-interpolation-filters="sRGB">
      <feFlood
         flood-opacity="0"
         result="BackgroundImageFix"
         id="feFlood149" />
      <feColorMatrix
         in="SourceAlpha"
         type="matrix"
         values="0 0 0 0 0 0 0 0 0 0 0 0 0 0 0 0 0 0 127 0"
         result="hardAlpha"
         id="feColorMatrix151" />
      <feOffset
         dy="4"
         id="feOffset153" />
      <feGaussianBlur
         stdDeviation="2"
         id="feGaussianBlur155" />
      <feComposite
         in2="hardAlpha"
         operator="out"
         id="feComposite157" />
      <feColorMatrix
         type="matrix"
         values="0 0 0 0 0.255234 0 0 0 0 0.169906 0 0 0 0 0.546126 0 0 0 0.5 0"
         id="feColorMatrix159" />
      <feBlend
         mode="normal"
         in2="BackgroundImageFix"
         result="effect1_dropShadow_3_65"
         id="feBlend161" />
      <feBlend
         mode="normal"
         in="SourceGraphic"
         in2="effect1_dropShadow_3_65"
         result="shape"
         id="feBlend163" />
    </filter>
  </defs>
</svg>
